<?xml version="1.0" encoding="utf-8"?>
<!-- Generator: Adobe Illustrator 16.0.0, SVG Export Plug-In . SVG Version: 6.00 Build 0)  -->
<!DOCTYPE svg PUBLIC "-//W3C//DTD SVG 1.1//EN" "http://www.w3.org/Graphics/SVG/1.1/DTD/svg11.dtd">
<svg version="1.1" id="Layer_1" xmlns="http://www.w3.org/2000/svg" xmlns:xlink="http://www.w3.org/1999/xlink" x="0px" y="0px"
	 width="200px" height="100px" viewBox="0 0 200 100" enable-background="new 0 0 200 100" xml:space="preserve">
<g id="XMLID_604_">
	<g id="XMLID_554_">
		<g id="XMLID_502_">
			<polygon id="XMLID_529_" fill="#2276D3" points="23.566,21.739 23.566,37.068 8.237,37.068 8.237,58.519 23.566,58.519 
				23.566,73.849 45.019,21.739 			"/>
			<polygon id="XMLID_530_" fill="#3156BC" points="45.019,37.068 45.019,21.739 23.566,73.849 45.019,73.849 45.019,58.519 
				60.347,58.519 60.347,37.068 			"/>
		</g>
		<path id="XMLID_553_" fill="#FFFFFF" d="M90.733,60.415c0,21.182,7.509,38.354-11.933,38.354S43.598,81.597,43.598,60.415
			c0-21.184,15.761-38.356,35.203-38.356S90.733,39.231,90.733,60.415z"/>
		<g id="XMLID_550_">
			<path id="XMLID_549_" fill="#2276D3" d="M89.232,20.088c-3.875-1.611-6.684-4.365-9.994-7.152
				c-1.647-1.386-4.785-3.063-7.846-3.836c1.384-2.668,2.082-5.365,2.082-5.365s-6.838-1.1-8.72,0
				c-1.807,1.055-3.962,5.781-5.064,8.442c-1,1.319-1.785,2.948-2.79,4.776c-2.803,5.102-4.768,12.511-6.134,20.399
				c2.217-3.209,5.726-7.013,9.931-8.921l-0.061,5.616c0,0,2.605,0.835,4.212,2.188c2.397,2.018,4.43,4.955,7.236,6.121
				c0.848,6.684-6.446,10.02-11.568,10.379l-0.127,2.084c-0.13,2.133,0.618,4.234,2.106,5.764
				c5.676,5.834,9.726,12.922,7.997,20.938c10.803-11.523,9.81-32.676,1.212-50.199l1.55-2.761c3.537-0.249,7.824,1.57,11.081,0.341
				C87.593,27.675,89.818,24.704,89.232,20.088z"/>
		</g>
	</g>
	<g id="XMLID_595_">
		<g>
			<path fill="#7F7F7F" d="M86.647,72.594v-7.1h0.7v6.479h4.101v0.621H86.647z"/>
			<path fill="#7F7F7F" d="M98.388,72.643c-0.493,0-0.945-0.102-1.355-0.305c-0.409-0.203-0.762-0.473-1.055-0.811
				c-0.293-0.336-0.52-0.721-0.68-1.154s-0.24-0.877-0.24-1.33c0-0.473,0.085-0.926,0.255-1.359s0.405-0.816,0.705-1.15
				s0.653-0.598,1.061-0.795c0.406-0.197,0.846-0.295,1.319-0.295c0.493,0,0.945,0.105,1.355,0.314
				c0.41,0.211,0.76,0.486,1.05,0.826s0.515,0.725,0.675,1.154s0.24,0.869,0.24,1.314c0,0.475-0.085,0.928-0.255,1.361
				s-0.403,0.814-0.7,1.145s-0.648,0.594-1.055,0.789C99.301,72.545,98.861,72.643,98.388,72.643z M95.758,69.043
				c0,0.387,0.063,0.758,0.189,1.115c0.127,0.357,0.307,0.674,0.54,0.949c0.233,0.277,0.511,0.498,0.83,0.66
				c0.32,0.164,0.677,0.246,1.07,0.246c0.4,0,0.764-0.088,1.09-0.26c0.327-0.174,0.604-0.4,0.83-0.68
				c0.227-0.281,0.401-0.598,0.525-0.951c0.123-0.354,0.185-0.713,0.185-1.08c0-0.387-0.064-0.758-0.195-1.115
				c-0.13-0.355-0.312-0.672-0.545-0.945c-0.233-0.271-0.51-0.49-0.83-0.654c-0.319-0.164-0.673-0.244-1.06-0.244
				c-0.4,0-0.764,0.084-1.09,0.254c-0.327,0.17-0.604,0.395-0.83,0.676c-0.227,0.279-0.401,0.596-0.525,0.949
				C95.819,68.316,95.758,68.676,95.758,69.043z"/>
			<path fill="#7F7F7F" d="M106.537,72.594v-7.1h3c0.307,0,0.589,0.064,0.846,0.193c0.256,0.131,0.478,0.301,0.665,0.512
				c0.187,0.209,0.331,0.447,0.435,0.715c0.104,0.266,0.155,0.535,0.155,0.809c0,0.26-0.039,0.51-0.115,0.746
				c-0.077,0.236-0.184,0.449-0.32,0.639c-0.137,0.191-0.302,0.352-0.495,0.48c-0.193,0.131-0.409,0.219-0.649,0.266l1.74,2.74
				h-0.79l-1.67-2.621h-2.101v2.621H106.537z M107.237,69.354h2.32c0.206,0,0.395-0.045,0.564-0.135s0.315-0.213,0.436-0.365
				c0.12-0.154,0.213-0.326,0.28-0.52c0.066-0.193,0.1-0.396,0.1-0.611c0-0.213-0.038-0.418-0.115-0.615
				c-0.076-0.195-0.18-0.367-0.31-0.514s-0.283-0.264-0.46-0.35c-0.177-0.088-0.362-0.131-0.556-0.131h-2.26V69.354z"/>
			<path fill="#7F7F7F" d="M121.338,71.973v0.621h-4.771v-7.1h4.681v0.619h-3.98v2.561h3.47v0.59h-3.47v2.709H121.338z"/>
			<path fill="#7F7F7F" d="M132.447,72.594v-5.83l-2.59,4.51h-0.41l-2.59-4.51v5.83h-0.7v-7.1h0.721l2.77,4.859l2.79-4.859h0.71v7.1
				H132.447z"/>
			<path fill="#7F7F7F" d="M144.477,72.594v-7.1h0.7v7.1H144.477z"/>
			<path fill="#7F7F7F" d="M150.456,72.594v-7.1h2.94c0.307,0,0.588,0.064,0.845,0.193c0.257,0.131,0.479,0.301,0.665,0.512
				c0.187,0.209,0.333,0.447,0.44,0.715c0.106,0.266,0.16,0.535,0.16,0.809c0,0.295-0.051,0.576-0.15,0.846s-0.24,0.508-0.42,0.715
				s-0.396,0.373-0.646,0.5s-0.528,0.189-0.835,0.189h-2.3v2.621H150.456z M151.156,69.354h2.271c0.206,0,0.395-0.045,0.564-0.135
				s0.315-0.211,0.436-0.361c0.12-0.148,0.213-0.322,0.279-0.52c0.067-0.195,0.101-0.4,0.101-0.615c0-0.219-0.039-0.428-0.115-0.625
				c-0.077-0.195-0.18-0.367-0.31-0.514c-0.131-0.146-0.284-0.262-0.46-0.346c-0.177-0.084-0.362-0.125-0.556-0.125h-2.21V69.354z"
				/>
			<path fill="#7F7F7F" d="M164.326,66.824c-0.2-0.227-0.467-0.41-0.8-0.551c-0.334-0.141-0.714-0.211-1.141-0.211
				c-0.626,0-1.083,0.119-1.369,0.355c-0.287,0.236-0.431,0.559-0.431,0.965c0,0.215,0.038,0.389,0.115,0.525
				c0.076,0.137,0.195,0.256,0.354,0.355c0.16,0.1,0.365,0.186,0.615,0.26s0.545,0.146,0.885,0.221
				c0.381,0.08,0.722,0.17,1.025,0.27s0.562,0.225,0.775,0.375c0.213,0.15,0.376,0.332,0.489,0.545s0.171,0.48,0.171,0.799
				c0,0.328-0.063,0.611-0.19,0.852s-0.304,0.439-0.53,0.6s-0.496,0.277-0.81,0.355c-0.313,0.076-0.657,0.113-1.03,0.113
				c-1.1,0-2.05-0.342-2.85-1.029l0.35-0.57c0.127,0.135,0.278,0.26,0.455,0.381c0.177,0.119,0.373,0.225,0.59,0.314
				s0.448,0.16,0.695,0.211c0.246,0.049,0.507,0.074,0.78,0.074c0.566,0,1.008-0.102,1.324-0.305
				c0.317-0.203,0.476-0.512,0.476-0.926c0-0.219-0.045-0.404-0.135-0.555c-0.091-0.15-0.226-0.279-0.405-0.391
				c-0.181-0.109-0.403-0.205-0.67-0.283c-0.267-0.08-0.577-0.16-0.931-0.24c-0.373-0.088-0.699-0.178-0.979-0.271
				c-0.28-0.092-0.517-0.209-0.71-0.35c-0.193-0.139-0.339-0.309-0.436-0.504c-0.097-0.197-0.145-0.439-0.145-0.727
				c0-0.326,0.062-0.617,0.185-0.875c0.124-0.256,0.299-0.469,0.525-0.639s0.493-0.301,0.8-0.391s0.646-0.135,1.021-0.135
				c0.473,0,0.895,0.072,1.265,0.215s0.705,0.346,1.005,0.605L164.326,66.824z"/>
			<path fill="#7F7F7F" d="M172.626,72.014c0.447,0,0.818-0.086,1.115-0.256s0.533-0.393,0.71-0.67
				c0.177-0.275,0.3-0.592,0.37-0.945s0.105-0.709,0.105-1.068v-3.58h0.699v3.58c0,0.479-0.053,0.934-0.159,1.363
				c-0.107,0.432-0.278,0.809-0.516,1.137c-0.236,0.326-0.545,0.586-0.925,0.779s-0.844,0.289-1.39,0.289
				c-0.561,0-1.032-0.102-1.415-0.305c-0.384-0.203-0.692-0.471-0.925-0.805c-0.233-0.334-0.4-0.713-0.5-1.141
				c-0.101-0.426-0.15-0.865-0.15-1.318v-3.58h0.69v3.58c0,0.373,0.036,0.736,0.109,1.09s0.198,0.666,0.375,0.939
				s0.412,0.494,0.705,0.66S172.187,72.014,172.626,72.014z"/>
			<path fill="#7F7F7F" d="M187.086,72.594v-5.83l-2.59,4.51h-0.41l-2.59-4.51v5.83h-0.7v-7.1h0.721l2.77,4.859l2.79-4.859h0.71v7.1
				H187.086z"/>
		</g>
		<g>
			<path fill="#3156BC" d="M86.722,56.041V41.84h6.06c0.68,0,1.303,0.141,1.87,0.42c0.566,0.28,1.053,0.647,1.46,1.101
				c0.406,0.453,0.727,0.967,0.96,1.54s0.35,1.153,0.35,1.739c0,0.627-0.109,1.228-0.329,1.801c-0.221,0.573-0.527,1.087-0.921,1.54
				c-0.393,0.453-0.869,0.813-1.43,1.08c-0.56,0.268-1.18,0.4-1.86,0.4h-2.88v4.58H86.722z M90.001,48.6h2.681
				c0.387,0,0.72-0.166,1-0.5c0.279-0.333,0.42-0.819,0.42-1.46c0-0.333-0.044-0.619-0.13-0.859c-0.087-0.24-0.204-0.44-0.351-0.601
				c-0.146-0.159-0.313-0.276-0.5-0.35s-0.373-0.11-0.56-0.11h-2.561V48.6z"/>
			<path fill="#3156BC" d="M111.161,53.16v2.881h-9.979V41.84h9.8v2.88h-6.521v2.761h5.601v2.659h-5.601v3.02H111.161z"/>
			<path fill="#3156BC" d="M125.98,44.72h-4.319v11.321h-3.28V44.72h-4.34v-2.88h11.939V44.72z"/>
			<path fill="#3156BC" d="M134.861,48.821c0-0.854,0.16-1.703,0.479-2.55c0.32-0.847,0.787-1.604,1.4-2.271s1.36-1.206,2.24-1.62
				c0.88-0.413,1.88-0.62,3-0.62c1.333,0,2.49,0.287,3.47,0.86c0.98,0.573,1.71,1.32,2.19,2.24l-2.521,1.76
				c-0.16-0.373-0.363-0.684-0.609-0.93c-0.247-0.247-0.518-0.447-0.811-0.601s-0.594-0.26-0.899-0.319
				c-0.308-0.061-0.607-0.091-0.9-0.091c-0.627,0-1.174,0.127-1.64,0.38c-0.468,0.254-0.854,0.58-1.16,0.98
				c-0.308,0.4-0.534,0.854-0.681,1.36s-0.22,1.02-0.22,1.54c0,0.56,0.087,1.1,0.26,1.619c0.174,0.52,0.424,0.981,0.75,1.381
				c0.327,0.398,0.721,0.717,1.181,0.949s0.977,0.35,1.55,0.35c0.293,0,0.597-0.037,0.91-0.109c0.312-0.074,0.613-0.188,0.899-0.34
				c0.287-0.154,0.551-0.354,0.79-0.6c0.24-0.248,0.434-0.551,0.58-0.91l2.681,1.58c-0.214,0.52-0.53,0.986-0.95,1.398
				c-0.42,0.414-0.903,0.762-1.45,1.041s-1.127,0.494-1.74,0.641s-1.213,0.219-1.8,0.219c-1.027,0-1.97-0.209-2.83-0.629
				s-1.6-0.977-2.22-1.67s-1.101-1.48-1.44-2.361C135.031,50.621,134.861,49.727,134.861,48.821z"/>
			<path fill="#3156BC" d="M155.101,41.84h2.96l5.181,14.201h-3.36l-1.1-3.18h-4.42l-1.08,3.18h-3.36L155.101,41.84z M158.241,50.6
				l-1.66-5.02l-1.7,5.02H158.241z"/>
			<path fill="#3156BC" d="M166.642,56.041V41.84h6.399c0.667,0,1.283,0.141,1.851,0.42c0.566,0.28,1.057,0.647,1.47,1.101
				s0.736,0.967,0.97,1.54s0.351,1.153,0.351,1.739c0,0.44-0.054,0.864-0.16,1.271c-0.107,0.407-0.26,0.79-0.46,1.149
				c-0.2,0.36-0.443,0.684-0.73,0.971s-0.609,0.529-0.97,0.729l3.12,5.281h-3.7l-2.72-4.58h-2.141v4.58H166.642z M169.921,48.6h3
				c0.387,0,0.721-0.183,1-0.55c0.28-0.366,0.42-0.836,0.42-1.41c0-0.586-0.159-1.053-0.479-1.399s-0.667-0.521-1.04-0.521h-2.9
				V48.6z"/>
			<path fill="#3156BC" d="M192.021,53.16v2.881h-9.979V41.84h9.8v2.88h-6.521v2.761h5.601v2.659h-5.601v3.02H192.021z"/>
		</g>
	</g>
</g>
</svg>
